<svg xmlns="http://www.w3.org/2000/svg" viewBox="0 0 512 512"><!--!Font Awesome Free 6.7.2 by @fontawesome - https://fontawesome.com License - https://fontawesome.com/license/free Copyright 2025 Fonticons, Inc.--><path d="M167 309.3c-40.1 2.6-76.5 17.9-97.2 72.3-2.4 6.2-8 10-14.6 10-11.1 0-45.5-27.7-55.3-34.4C0 439.6 37.9 512 128 512c75.9 0 128-43.8 128-120.2 0-3.1-.7-6.1-1-9.1l-88-73.3zM457.9 0c-15.2 0-29.4 6.7-40.2 16.5C213.3 199.1 192 203.3 192 257.1c0 13.7 3.3 26.8 8.7 38.7l63.8 53.2c7.2 1.8 14.6 3 22.4 3 62.1 0 98.1-45.5 211.2-256.5 7.4-14.4 13.9-29.9 13.9-46C512 20.6 486 0 457.9 0z"/></svg>