{
	"asset":{
		"generator":"Khronos glTF Blender I/O v4.3.47",
		"version":"2.0"
	},
	"extensionsUsed":[
		"KHR_materials_unlit"
	],
	"scene":0,
	"scenes":[
		{
			"name":"Scene",
			"nodes":[
				0,
				1
			]
		}
	],
	"nodes":[
		{
			"mesh":0,
			"name":"Mesh10 Group14 Group13 Component_2_2 Group2 Group1 skp27B5_1 Mo",
			"rotation":[
				0.7071068286895752,
				0,
				0,
				0.7071068286895752
			]
		},
		{
			"mesh":1,
			"name":"Mesh16 Group19 Group1 skp27B5_1 Model",
			"rotation":[
				0.7071068286895752,
				0,
				0,
				0.7071068286895752
			]
		}
	],
	"materials":[
		{
			"doubleSided":true,
			"extensions":{
				"KHR_materials_unlit":{}
			},
			"name":"METAL",
			"pbrMetallicRoughness":{
				"baseColorTexture":{
					"index":0
				},
				"metallicFactor":0,
				"roughnessFactor":0.9
			}
		},
		{
			"doubleSided":true,
			"extensions":{
				"KHR_materials_unlit":{}
			},
			"name":"MADEIRA",
			"pbrMetallicRoughness":{
				"baseColorTexture":{
					"index":1
				},
				"metallicFactor":0,
				"roughnessFactor":0.9
			}
		}
	],
	"meshes":[
		{
			"name":"Mesh10 Group14 Group13 Component_2_2 Group2 Group1 skp27B5_1 Mo",
			"primitives":[
				{
					"attributes":{
						"POSITION":0,
						"NORMAL":1,
						"TEXCOORD_0":2
					},
					"indices":3,
					"material":0
				}
			]
		},
		{
			"name":"Mesh16 Group19 Group1 skp27B5_1 Model",
			"primitives":[
				{
					"attributes":{
						"POSITION":4,
						"NORMAL":5,
						"TEXCOORD_0":6
					},
					"indices":7,
					"material":1
				}
			]
		}
	],
	"textures":[
		{
			"sampler":0,
			"source":0
		},
		{
			"sampler":0,
			"source":0
		}
	],
	"images":[
		{
			"mimeType":"image/png",
			"name":"BAKING",
			"uri":"textures/BAKING.png"
		}
	],
	"accessors":[
		{
			"bufferView":0,
			"componentType":5126,
			"count":5224,
			"max":[
				0.3440450131893158,
				0.2730869948863983,
				-0.017500000074505806
			],
			"min":[
				-0.3432979881763458,
				-0.261913001537323,
				-0.6652370095252991
			],
			"type":"VEC3"
		},
		{
			"bufferView":1,
			"componentType":5126,
			"count":5224,
			"type":"VEC3"
		},
		{
			"bufferView":2,
			"componentType":5126,
			"count":5224,
			"type":"VEC2"
		},
		{
			"bufferView":3,
			"componentType":5123,
			"count":20565,
			"type":"SCALAR"
		},
		{
			"bufferView":4,
			"componentType":5126,
			"count":2281,
			"max":[
				0.3363659977912903,
				0.23868300020694733,
				-0.32267799973487854
			],
			"min":[
				-0.35893601179122925,
				-0.227510005235672,
				-0.7428299784660339
			],
			"type":"VEC3"
		},
		{
			"bufferView":5,
			"componentType":5126,
			"count":2281,
			"type":"VEC3"
		},
		{
			"bufferView":6,
			"componentType":5126,
			"count":2281,
			"type":"VEC2"
		},
		{
			"bufferView":7,
			"componentType":5123,
			"count":9216,
			"type":"SCALAR"
		}
	],
	"bufferViews":[
		{
			"buffer":0,
			"byteLength":62688,
			"byteOffset":0,
			"target":34962
		},
		{
			"buffer":0,
			"byteLength":62688,
			"byteOffset":62688,
			"target":34962
		},
		{
			"buffer":0,
			"byteLength":41792,
			"byteOffset":125376,
			"target":34962
		},
		{
			"buffer":0,
			"byteLength":41130,
			"byteOffset":167168,
			"target":34963
		},
		{
			"buffer":0,
			"byteLength":27372,
			"byteOffset":208300,
			"target":34962
		},
		{
			"buffer":0,
			"byteLength":27372,
			"byteOffset":235672,
			"target":34962
		},
		{
			"buffer":0,
			"byteLength":18248,
			"byteOffset":263044,
			"target":34962
		},
		{
			"buffer":0,
			"byteLength":18432,
			"byteOffset":281292,
			"target":34963
		}
	],
	"samplers":[
		{
			"magFilter":9729,
			"minFilter":9987
		}
	],
	"buffers":[
		{
			"byteLength":299724,
			"uri":"model7.bin"
		}
	]
}
