{
	"asset":{
		"generator":"Khronos glTF Blender I/O v4.3.47",
		"version":"2.0"
	},
	"extensionsUsed":[
		"KHR_materials_specular",
		"KHR_texture_transform"
	],
	"extensionsRequired":[
		"KHR_texture_transform"
	],
	"scene":0,
	"scenes":[
		{
			"name":"Scene",
			"nodes":[
				0,
				1,
				2
			]
		}
	],
	"nodes":[
		{
			"mesh":0,
			"name":"Mesh1 Group1 Model",
			"rotation":[
				0.7071068286895752,
				0,
				0,
				0.7071068286895752
			]
		},
		{
			"mesh":1,
			"name":"Mesh20 Group9 Model",
			"rotation":[
				0.7071068286895752,
				0,
				0,
				0.7071068286895752
			]
		},
		{
			"mesh":2,
			"name":"Mesh22 Group10 Model",
			"rotation":[
				0.7071068286895752,
				0,
				0,
				0.7071068286895752
			]
		}
	],
	"materials":[
		{
			"doubleSided":true,
			"extensions":{
				"KHR_materials_specular":{
					"specularFactor":0.6600000262260437
				}
			},
			"name":"MADEIRA",
			"normalTexture":{
				"extensions":{
					"KHR_texture_transform":{
						"offset":[
							0,
							-9
						],
						"scale":[
							5,
							10
						]
					}
				},
				"index":0,
				"scale":3
			},
			"pbrMetallicRoughness":{
				"baseColorTexture":{
					"index":1
				},
				"metallicRoughnessTexture":{
					"extensions":{
						"KHR_texture_transform":{
							"offset":[
								0,
								-9
							],
							"scale":[
								5,
								10
							]
						}
					},
					"index":2
				}
			}
		},
		{
			"doubleSided":true,
			"name":"Material",
			"normalTexture":{
				"index":3
			},
			"pbrMetallicRoughness":{
				"baseColorTexture":{
					"index":4
				},
				"metallicFactor":0,
				"metallicRoughnessTexture":{
					"index":5
				}
			}
		},
		{
			"doubleSided":true,
			"extensions":{
				"KHR_materials_specular":{
					"specularFactor":0.6600000262260437
				}
			},
			"name":"CORDA",
			"normalTexture":{
				"index":6
			},
			"pbrMetallicRoughness":{
				"baseColorTexture":{
					"index":7
				},
				"metallicRoughnessTexture":{
					"index":8
				}
			}
		}
	],
	"meshes":[
		{
			"name":"Mesh1 Group1 Model",
			"primitives":[
				{
					"attributes":{
						"POSITION":0,
						"NORMAL":1,
						"TEXCOORD_0":2
					},
					"indices":3,
					"material":0
				}
			]
		},
		{
			"name":"Mesh20 Group9 Model",
			"primitives":[
				{
					"attributes":{
						"POSITION":4,
						"NORMAL":5,
						"TEXCOORD_0":6
					},
					"indices":7,
					"material":1
				}
			]
		},
		{
			"name":"Mesh22 Group10 Model",
			"primitives":[
				{
					"attributes":{
						"POSITION":8,
						"NORMAL":9,
						"TEXCOORD_0":10,
						"TEXCOORD_1":11
					},
					"indices":12,
					"material":2
				}
			]
		}
	],
	"textures":[
		{
			"sampler":0,
			"source":0
		},
		{
			"sampler":0,
			"source":1
		},
		{
			"sampler":0,
			"source":2
		},
		{
			"sampler":0,
			"source":3
		},
		{
			"sampler":0,
			"source":4
		},
		{
			"sampler":0,
			"source":5
		},
		{
			"sampler":0,
			"source":6
		},
		{
			"sampler":0,
			"source":7
		},
		{
			"sampler":0,
			"source":8
		}
	],
	"images":[
		{
			"mimeType":"image/png",
			"name":"oak-wood-bare_normal-ogl",
			"uri":"model6_2/oak-wood-bare_normal-ogl.png"
		},
		{
			"mimeType":"image/png",
			"name":"BAKED_WOOD",
			"uri":"model6_2/BAKED_WOOD.png"
		},
		{
			"mimeType":"image/png",
			"name":"oak-wood-bare_metallic-oak-wood-bare_roughness",
			"uri":"model6_2/oak-wood-bare_metallic-oak-wood-bare_roughness.png"
		},
		{
			"mimeType":"image/png",
			"name":"normal_leather",
			"uri":"model6_2/normal_leather.png"
		},
		{
			"mimeType":"image/png",
			"name":"color _leather",
			"uri":"model6_2/color%20_leather.png"
		},
		{
			"mimeType":"image/png",
			"name":"roughness_leather",
			"uri":"model6_2/roughness_leather.png"
		},
		{
			"mimeType":"image/jpeg",
			"name":"Rope001_1K-JPG_NormalGL",
			"uri":"model6_2/Rope001_1K-JPG_NormalGL.jpg"
		},
		{
			"mimeType":"image/jpeg",
			"name":"Rope001_1K-JPG_Color",
			"uri":"model6_2/Rope001_1K-JPG_Color.jpg"
		},
		{
			"mimeType":"image/png",
			"name":"Rope001_1K-JPG_Metalness-Rope001_1K-JPG_Roughness",
			"uri":"model6_2/Rope001_1K-JPG_Metalness-Rope001_1K-JPG_Roughness.png"
		}
	],
	"accessors":[
		{
			"bufferView":0,
			"componentType":5126,
			"count":8352,
			"max":[
				0.30282700061798096,
				0.35207799077033997,
				4.072030002278586e-15
			],
			"min":[
				-0.30282700061798096,
				-0.3690429925918579,
				-0.7695429921150208
			],
			"type":"VEC3"
		},
		{
			"bufferView":1,
			"componentType":5126,
			"count":8352,
			"type":"VEC3"
		},
		{
			"bufferView":2,
			"componentType":5126,
			"count":8352,
			"type":"VEC2"
		},
		{
			"bufferView":3,
			"componentType":5123,
			"count":33099,
			"type":"SCALAR"
		},
		{
			"bufferView":4,
			"componentType":5126,
			"count":7451,
			"max":[
				0.27282699942588806,
				0.3536979854106903,
				-0.20851999521255493
			],
			"min":[
				-0.27282699942588806,
				-0.26860201358795166,
				-0.695252001285553
			],
			"type":"VEC3"
		},
		{
			"bufferView":5,
			"componentType":5126,
			"count":7451,
			"type":"VEC3"
		},
		{
			"bufferView":6,
			"componentType":5126,
			"count":7451,
			"type":"VEC2"
		},
		{
			"bufferView":7,
			"componentType":5123,
			"count":27606,
			"type":"SCALAR"
		},
		{
			"bufferView":8,
			"componentType":5126,
			"count":47913,
			"max":[
				0.3059369921684265,
				0.032648198306560516,
				-0.17515000700950623
			],
			"min":[
				-0.3059369921684265,
				-0.30753299593925476,
				-0.7382490038871765
			],
			"type":"VEC3"
		},
		{
			"bufferView":9,
			"componentType":5126,
			"count":47913,
			"type":"VEC3"
		},
		{
			"bufferView":10,
			"componentType":5126,
			"count":47913,
			"type":"VEC2"
		},
		{
			"bufferView":11,
			"componentType":5126,
			"count":47913,
			"type":"VEC2"
		},
		{
			"bufferView":12,
			"componentType":5123,
			"count":202497,
			"type":"SCALAR"
		}
	],
	"bufferViews":[
		{
			"buffer":0,
			"byteLength":100224,
			"byteOffset":0,
			"target":34962
		},
		{
			"buffer":0,
			"byteLength":100224,
			"byteOffset":100224,
			"target":34962
		},
		{
			"buffer":0,
			"byteLength":66816,
			"byteOffset":200448,
			"target":34962
		},
		{
			"buffer":0,
			"byteLength":66198,
			"byteOffset":267264,
			"target":34963
		},
		{
			"buffer":0,
			"byteLength":89412,
			"byteOffset":333464,
			"target":34962
		},
		{
			"buffer":0,
			"byteLength":89412,
			"byteOffset":422876,
			"target":34962
		},
		{
			"buffer":0,
			"byteLength":59608,
			"byteOffset":512288,
			"target":34962
		},
		{
			"buffer":0,
			"byteLength":55212,
			"byteOffset":571896,
			"target":34963
		},
		{
			"buffer":0,
			"byteLength":574956,
			"byteOffset":627108,
			"target":34962
		},
		{
			"buffer":0,
			"byteLength":574956,
			"byteOffset":1202064,
			"target":34962
		},
		{
			"buffer":0,
			"byteLength":383304,
			"byteOffset":1777020,
			"target":34962
		},
		{
			"buffer":0,
			"byteLength":383304,
			"byteOffset":2160324,
			"target":34962
		},
		{
			"buffer":0,
			"byteLength":404994,
			"byteOffset":2543628,
			"target":34963
		}
	],
	"samplers":[
		{
			"magFilter":9729,
			"minFilter":9987
		}
	],
	"buffers":[
		{
			"byteLength":2948624,
			"uri":"model6_2.bin"
		}
	]
}
